<?xml version="1.0" standalone="no"?><!DOCTYPE svg PUBLIC "-//W3C//DTD SVG 1.1//EN" "http://www.w3.org/Graphics/SVG/1.1/DTD/svg11.dtd"><svg t="1567739759996" class="icon" viewBox="0 0 1024 1024" version="1.1" xmlns="http://www.w3.org/2000/svg" p-id="5499" xmlns:xlink="http://www.w3.org/1999/xlink" width="64" height="64"><defs><style type="text/css"></style></defs><path d="M562.177203 62.631257l105.348061 223.33067a56.253819 56.253819 0 0 0 42.115159 32.007521l235.844888 36.098707a59.20188 59.20188 0 0 1 30.984724 99.632433l-170.686721 173.87544a60.164512 60.164512 0 0 0-16.003761 51.681316l40.250059 245.471211a56.494477 56.494477 0 0 1-81.101762 61.60846l-210.876616-116.177673a53.60658 53.60658 0 0 0-51.982139 0l-210.93678 115.876851a56.434313 56.434313 0 0 1-81.041598-61.608461l40.611046-245.651704a60.164512 60.164512 0 0 0-16.12409-51.681316L47.710458 453.399765a59.081551 59.081551 0 0 1 30.92456-99.512103l235.784723-36.098708a56.193655 56.193655 0 0 0 42.115159-32.00752l105.348061-223.150177a54.870035 54.870035 0 0 1 100.234078 0" p-id="5500" fill="#f56250"></path><path d="M279.223502 992.714454a55.231022 55.231022 0 0 1-42.115159-19.974619 58.901058 58.901058 0 0 1-13.055699-48.492596l40.310223-245.471211a60.164512 60.164512 0 0 0-16.124089-51.681316L77.792714 453.399765a59.803525 59.803525 0 0 1-13.777673-61.187309 55.531845 55.531845 0 0 1 44.942891-38.445123l235.844888-36.098708a56.13349 56.13349 0 0 0 42.115159-32.00752l105.287896-223.33067A54.9302 54.9302 0 0 1 542.142421 30.082256v833.338661h-0.421152a52.944771 52.944771 0 0 0-25.569918 6.618096l-210.93678 115.937015a53.305758 53.305758 0 0 1-25.991069 6.738426z" p-id="5501" fill="#f56250"></path></svg>