<?xml version="1.0" standalone="no"?><!DOCTYPE svg PUBLIC "-//W3C//DTD SVG 1.1//EN" "http://www.w3.org/Graphics/SVG/1.1/DTD/svg11.dtd"><svg t="1561624932040" class="icon" viewBox="0 0 1024 1024" version="1.1" xmlns="http://www.w3.org/2000/svg" p-id="5870" xmlns:xlink="http://www.w3.org/1999/xlink" width="150" height="150"><defs><style type="text/css"></style></defs><path d="M280.291556 853.333333H418.133333a287.175111 287.175111 0 0 0 235.121778-111.957333 643.925333 643.925333 0 0 0 85.333333-161.507556h159.288889V443.733333h-104.334222a295.822222 295.822222 0 0 1 67.697778-100.920889A155.875556 155.875556 0 0 1 967.111111 307.2V170.666667a290.133333 290.133333 0 0 0-236.942222 111.331555 469.390222 469.390222 0 0 0-58.481778 97.848889c-11.093333 22.755556-25.827556 59.335111-44.942222 107.633778a703.317333 703.317333 0 0 1-81.863111 168.846222A154.510222 154.510222 0 0 1 417.507556 716.8H280.291556a89.998222 89.998222 0 0 1-65.877334-22.016 64.739556 64.739556 0 0 1 0-92.956444 89.998222 89.998222 0 0 1 65.877334-22.016h137.216V443.733333H280.291556a223.345778 223.345778 0 0 0-164.295112 62.577778A192.853333 192.853333 0 0 0 56.888889 648.533333a192.853333 192.853333 0 0 0 59.107555 141.937778A220.956444 220.956444 0 0 0 280.291556 853.333333z" fill="#26A2C1" p-id="5871"></path></svg>