<?xml version="1.0" standalone="no"?><!DOCTYPE svg PUBLIC "-//W3C//DTD SVG 1.1//EN" "http://www.w3.org/Graphics/SVG/1.1/DTD/svg11.dtd"><svg t="1562581832750" class="icon" viewBox="0 0 1024 1024" version="1.1" xmlns="http://www.w3.org/2000/svg" p-id="2913" xmlns:xlink="http://www.w3.org/1999/xlink" width="200" height="200"><defs><style type="text/css"></style></defs><path d="M949.703111 390.855111a36.864 36.864 0 0 0-2.218667-4.110222l-118.215111-187.932445L736.711111 390.855111h212.992z m-584.96 0H680.533333l-157.909333-211.626667-157.880889 211.626667z m125.468445-221.056H267.292444c-8.704 0-18.076444 2.972444-26.083555 7.822222l95.459555 198.016 153.543112-205.838222z m315.008 5.376c-6.855111-3.384889-14.449778-5.376-21.546667-5.376H555.064889l153.528889 205.838222 96.625778-200.462222zM355.754667 421.390222l166.442666 487.850667 1.152 0.128L689.493333 421.390222H355.754667zM218.453333 203.918222L103.466667 386.744889l-2.616889 4.110222h207.701333L218.453333 203.918222zM97.009778 421.390222l0.924444 1.536h1.706667c1.934222 2.218667 4.551111 5.290667 7.736889 9.059556L472.590222 863.146667 321.92 421.390222H97.009778z m853.333333 0H723.370667L568.931556 874.951111l375.224888-442.965333a35.982222 35.982222 0 0 0 6.186667-10.595556z" fill="#27B2FF" p-id="2914"></path></svg>