<?xml version="1.0" standalone="no"?><!DOCTYPE svg PUBLIC "-//W3C//DTD SVG 1.1//EN" "http://www.w3.org/Graphics/SVG/1.1/DTD/svg11.dtd"><svg t="1560583593820" class="icon" style="" viewBox="0 0 1024 1024" version="1.1" xmlns="http://www.w3.org/2000/svg" p-id="10293" xmlns:xlink="http://www.w3.org/1999/xlink" width="340" height="340"><defs><style type="text/css"></style></defs><path d="M483.328 113.664c233.472 0 426.496 193.536 426.496 426.496 0 108.032-39.936 204.8-108.032 278.528H875.52c56.832-79.872 91.136-176.128 91.136-278.528 0-267.264-216.064-483.328-483.328-483.328h-5.632v56.832h5.632zM142.336 796.672c-51.2-73.728-85.504-159.232-85.504-256s34.304-182.272 85.504-256V199.168C56.832 284.672 0 409.6 0 540.672s51.2 250.368 136.704 335.872l5.632-11.264v-68.608z" fill="#C49752" p-id="10294"></path><path d="M420.864 876.032V0H124.928l73.728 85.504v790.528L124.928 1024H819.2l73.728-147.968H420.864z" fill="#C49752" p-id="10295"></path></svg>