<?xml version="1.0" standalone="no"?><!DOCTYPE svg PUBLIC "-//W3C//DTD SVG 1.1//EN" "http://www.w3.org/Graphics/SVG/1.1/DTD/svg11.dtd"><svg t="1561624428291" class="icon" viewBox="0 0 1024 1024" version="1.1" xmlns="http://www.w3.org/2000/svg" p-id="8434" xmlns:xlink="http://www.w3.org/1999/xlink" width="150" height="150"><defs><style type="text/css"></style></defs><path d="M429.01 94.13c48.21-15.98 101.37-16.91 149.98-2.04 23.77 6.28 45.58 18.02 66.78 30.14 15.91 10.35 31.5 21.57 44.52 35.47 18.91 17.09 34.8 37.45 47.47 59.54 23.03 37.4 35.83 80.92 37.5 124.76 0.05 18.81-0.54 37.71-2.99 56.36-2.37 0.4-4.64 1.23-6.88 2.08-48.24 18.2-94.6 40.95-140.47 64.41-33.21 16.69-67.84 30.58-100.27 48.82-5.61 3.09-10.44 7.74-16.64 9.67-4.08 0.19-7.69-2.22-11.08-4.2-13.67-8.94-28.52-15.86-43.33-22.68-28.61-12.98-57.4-25.59-85.66-39.35-38.13-18.33-76.02-37.34-115.52-52.61-3.6-1.54-7.69-2.22-10.72-4.84 1.11-9.56-1.49-19.08-1.08-28.68-3.6-41.56 3.73-83.8 20.22-122.05 10.81-22.88 22.79-45.46 39.26-64.85 33.23-41.43 78.37-73.43 128.91-89.95m-4.53 111.66c-10.88 2.15-20.13 9.31-26.7 18.02-10.74 14.67-15.65 33.14-15.45 51.19-0.33 19.85 5.31 40.27 17.7 56 8.02 9.92 19.75 18.09 32.97 17.81 12.49 0.54 24.11-6.57 31.82-15.98 12.11-14.71 17.25-34.05 17.62-52.83 0.02-20.75-5.58-42.21-19.13-58.32-9.26-11.23-24.07-18.8-38.83-15.89m142.91 1.83c-13.54 2.8-24.21 13.15-31.01 24.76-11.47 19.9-14.21 44.14-9.73 66.47 3.1 14.77 9.57 29.33 20.74 39.76 8.85 8.65 21.91 13.76 34.25 10.93 11.4-2.29 20.92-10.08 27.59-19.33 9.82-13.67 14.48-30.54 15.25-47.22 0.83-22.54-5.17-46.67-21.31-63.16-8.97-9.52-22.73-15.19-35.78-12.21m-82.04 148.85c-32.8 1.97-65.6 6.9-97 16.82-13.86 4.31-28.11 7.68-41.41 13.61-4.97 2.48-11.34 5.81-11.64 12.09 0.4 6.8 6.17 11.6 10.97 15.73 21.83 17.28 47.68 28.27 71.26 42.81 17.09 9.87 33.67 21.22 52.64 27.23 14.45 4.69 29.85 4.71 44.85 3.66 29.31-1.88 54.73-17.75 79.54-31.93 22.19-13.16 45.93-23.8 66.71-39.22 5.71-4.7 12.55-9.58 14.19-17.24 0.6-6.78-6.26-10.5-11.45-13.05-13.53-6.04-28.03-9.43-42.12-13.85-33.61-10.59-68.79-15.35-103.89-17.11-10.87-0.64-21.79-0.29-32.65 0.45z" fill="" p-id="8435"></path><path d="M442.5 242.83c9.68-2.44 18.5 5.11 22.24 13.46 7.18 15.1 6.02 35.21-5.73 47.73-6.36 6.88-17.84 7.12-24.37 0.33-10.72-10.66-12.96-27.63-9.06-41.76 2.46-8.46 7.91-17.32 16.92-19.76m7.79 18.5c-8.96 3.39-8.77 19.41 0.67 22.15 12.2 0.14 12-23.86-0.67-22.15zM563.31 247.35c8.93-2.04 18.08 2.91 23.05 10.24 6.95 10.24 9.05 23.13 8.18 35.3-1.2 4.64-7.82 6.28-10.99 2.56-3.16-4.26-1.2-9.89-2.26-14.74-1.37-7.29-3.39-15.77-10.2-19.87-4.33-2.79-9.49 0.48-12.02 4.17-5.84 8.32-5.87 18.82-6.74 28.52-2.54 6.4-12.6 4.39-12.6-2.46-0.19-16.7 4.79-39.25 23.58-43.72zM879.17 538.15c4.84-2.59 8.54 3.4 10.67 6.93 9.21 18.62 12.02 40.45 7.72 60.79-4.36 16.82-14.01 33.87-30.4 41.38-12.06 5.34-26.17-2.04-29.95-14.33-5.16-13.9-4.22-29.19-1.5-43.51 1.52-8.08 4.93-15.99 10.82-21.85 7.16-7.06 16.74-11.05 23.83-18.2 3.39-3.37 5.51-7.76 8.81-11.21zM121.21 554.16c2.49-6.36 5.12-13.65 11.65-16.91 0.77 0.27 2.31 0.81 3.09 1.09 2.9 2.72 4.69 6.36 7.3 9.34 8.09 9.52 21.02 13.43 28.5 23.6 6.57 8.45 8.13 19.4 9.38 29.73 0.98 13.97 0.78 30.01-8.94 41.16-5.74 7.01-15.91 8.07-24.04 5.2-12.38-5.51-21.17-16.96-26.25-29.24-9.56-20-7.51-43.46-0.69-63.97z" fill="" p-id="8436"></path><path d="M424.48 205.79c14.76-2.91 29.57 4.66 38.83 15.89 13.55 16.11 19.15 37.57 19.13 58.32-0.37 18.78-5.51 38.12-17.62 52.83-7.71 9.41-19.33 16.52-31.82 15.98-13.22 0.28-24.95-7.89-32.97-17.81-12.39-15.73-18.03-36.15-17.7-56-0.2-18.05 4.71-36.52 15.45-51.19 6.57-8.71 15.82-15.87 26.7-18.02m18.02 37.04c-9.01 2.44-14.46 11.3-16.92 19.76-3.9 14.13-1.66 31.1 9.06 41.76 6.53 6.79 18.01 6.55 24.37-0.33 11.75-12.52 12.91-32.63 5.73-47.73-3.74-8.35-12.56-15.9-22.24-13.46zM567.39 207.62c13.05-2.98 26.81 2.69 35.78 12.21 16.14 16.49 22.14 40.62 21.31 63.16-0.77 16.68-5.43 33.55-15.25 47.22-6.67 9.25-16.19 17.04-27.59 19.33-12.34 2.83-25.4-2.28-34.25-10.93-11.17-10.43-17.64-24.99-20.74-39.76-4.48-22.33-1.74-46.57 9.73-66.47 6.8-11.61 17.47-21.96 31.01-24.76m-4.08 39.73c-18.79 4.47-23.77 27.02-23.58 43.72 0 6.85 10.06 8.86 12.6 2.46 0.87-9.7 0.9-20.2 6.74-28.52 2.53-3.69 7.69-6.96 12.02-4.17 6.81 4.1 8.83 12.58 10.2 19.87 1.06 4.85-0.9 10.48 2.26 14.74 3.17 3.72 9.79 2.08 10.99-2.56 0.87-12.17-1.23-25.06-8.18-35.3-4.97-7.33-14.12-12.28-23.05-10.24z" fill="#FFFFFF" p-id="8437"></path><path d="M450.29 261.33c12.67-1.71 12.87 22.29 0.67 22.15-9.44-2.74-9.63-18.76-0.67-22.15zM192.11 386.1c16.91 2.22 35.44 2.87 49.59 13.56 3.03 2.62 7.12 3.3 10.72 4.84 39.5 15.27 77.39 34.28 115.52 52.61 28.26 13.76 57.05 26.37 85.66 39.35 14.81 6.82 29.66 13.74 43.33 22.68 3.39 1.98 7 4.39 11.08 4.2 6.2-1.93 11.03-6.58 16.64-9.67 32.43-18.24 67.06-32.13 100.27-48.82 45.87-23.46 92.23-46.21 140.47-64.41 2.24-0.85 4.51-1.68 6.88-2.08 4.86-0.02 8.32-3.94 12.85-5.13 12.04-4.83 25.1-5.35 37.79-7.16 6.83 12.34 12.19 25.7 20.03 37.37 6.76 0.36 13.46-2.19 20.23-0.69-22.82 1.42-45.31 5.81-67.58 10.77-44.72 9.79-88.84 22.66-131.42 39.52-18.92 5.23-37.6 11.37-56.06 18.06-4.67 1.85-10.39 3.22-12.44 8.4-16.2 7.77-33.25 13.66-49.21 21.92-20.47 7.49-43.08 8.43-64.23 3.27-9.12-1.37-16.91-6.54-25.52-9.45-68.27-26.67-136.9-52.96-207.72-72.18-32.15-7.73-63.82-19.01-97.15-20.3 7.04-1.56 14 1.2 21.05 0.6 6.49-12.37 12.87-24.81 19.22-37.26z" fill="#FFFFFF" p-id="8438"></path><path d="M485.35 356.47c10.86-0.74 21.78-1.09 32.65-0.45 35.1 1.76 70.28 6.52 103.89 17.11 14.09 4.42 28.59 7.81 42.12 13.85 5.19 2.55 12.05 6.27 11.45 13.05-1.64 7.66-8.48 12.54-14.19 17.24-20.78 15.42-44.52 26.06-66.71 39.22-24.81 14.18-50.23 30.05-79.54 31.93-15 1.05-30.4 1.03-44.85-3.66-18.97-6.01-35.55-17.36-52.64-27.23-23.58-14.54-49.43-25.53-71.26-42.81-4.8-4.13-10.57-8.93-10.97-15.73 0.3-6.28 6.67-9.61 11.64-12.09 13.3-5.93 27.55-9.3 41.41-13.61 31.4-9.92 64.2-14.85 97-16.82m141.47 52.37c-35.27 25.72-79.46 37.53-122.83 36.94-44.54 0.42-90.06-12.56-125.08-40.7-1.91-1.65-3.94-3.17-6.18-4.32 1.73 3.59 4.95 6.04 7.78 8.72 15.58 14.51 34.38 25.19 54.09 33.02 17.04 6.85 29.49 21.61 46.83 27.87 17.71 6.08 38.07 5.54 54.85-3.14 13.41-6.79 24.11-18 38.04-23.89 24.06-9.81 48.39-22.64 64.64-43.47-4.46 2.4-8.01 6.09-12.14 8.97z" fill="#FFAA01" p-id="8439"></path><path d="M626.82 408.84c4.13-2.88 7.68-6.57 12.14-8.97-16.25 20.83-40.58 33.66-64.64 43.47-13.93 5.89-24.63 17.1-38.04 23.89-16.78 8.68-37.14 9.22-54.85 3.14-17.34-6.26-29.79-21.02-46.83-27.87-19.71-7.83-38.51-18.51-54.09-33.02-2.83-2.68-6.05-5.13-7.78-8.72 2.24 1.15 4.27 2.67 6.18 4.32 35.02 28.14 80.54 41.12 125.08 40.7 43.37 0.59 87.56-11.22 122.83-36.94z" fill="#AC2A2A" p-id="8440"></path><path d="M128.87 457.3c-1-14.87 10.95-27.6 22.97-34.54 33.33 1.29 65 12.57 97.15 20.3 70.82 19.22 139.45 45.51 207.72 72.18 8.61 2.91 16.4 8.08 25.52 9.45 21.15 5.16 43.76 4.22 64.23-3.27 15.96-8.26 33.01-14.15 49.21-21.92 11.93 1.31 22.91 7.67 33.92 12.31-0.2 2.18-0.41 4.36-0.62 6.54-28.54 10.77-57.04 22.04-84.55 35.25-23.72 8.37-50.54 8.37-74.04-0.72-7.68-3.76-15.84-6.4-23.77-9.56-57.25-21.82-114.94-42.64-173.64-60.22-43.51-11.94-87.24-23.08-130.99-34.02-6.13-2.15-12.02 2.13-13.11 8.22zM795.59 433.52c22.27-4.96 44.76-9.35 67.58-10.77 11.82 6.72 23.5 19.07 23.04 33.55-1.76-5.63-7.41-9.03-13.22-7.41-41.61 6.87-82.57 17.14-123.34 27.82-17.66 4.76-35.09 10.37-52.37 16.35-0.17-1.9-0.45-3.78-0.68-5.65-10.51-5.45-21.67-9.47-32.43-14.37 42.58-16.86 86.7-29.73 131.42-39.52z" fill="#75D5FF" p-id="8441"></path><path d="M128.87 457.3c1.09-6.09 6.98-10.37 13.11-8.22 43.75 10.94 87.48 22.08 130.99 34.02 58.7 17.58 116.39 38.4 173.64 60.22 7.93 3.16 16.09 5.8 23.77 9.56 1.7 22.33-0.33 44.79 1.57 67.12 0.4 15.99-0.49 32.03 0.9 47.98 0.44 25.01-0.44 50.05 1.07 75.02-0.49 33.69 1.49 67.31 1.11 101 1.97 36.78 0.2 73.69 1.91 110.47l-4.29-0.36c-2.07-0.34-4.03-1.11-5.98-1.83-63.92-23.66-128.4-45.89-193.81-65.11-30.47-9.13-61.18-17.46-91.73-26.31-7.54-1.93-14.44-8.55-13.62-16.84-5.47-56.31-11.32-112.61-16.98-168.91-0.76-9.25-2.32-18.44-2.38-27.74 8.13 2.87 18.3 1.81 24.04-5.2 9.72-11.15 9.92-27.19 8.94-41.16-1.25-10.33-2.81-21.28-9.38-29.73-7.48-10.17-20.41-14.08-28.5-23.6-2.61-2.98-4.4-6.62-7.3-9.34-1.11-27.09-6.18-53.95-7.08-81.04zM749.65 476.71c40.77-10.68 81.73-20.95 123.34-27.82 5.81-1.62 11.46 1.78 13.22 7.41-0.49 27.4-6.32 54.48-7.04 81.85-3.3 3.45-5.42 7.84-8.81 11.21-7.09 7.15-16.67 11.14-23.83 18.2-5.89 5.86-9.3 13.77-10.82 21.85-2.72 14.32-3.66 29.61 1.5 43.51 3.78 12.29 17.89 19.67 29.95 14.33-5.42 66.43-13.75 132.7-19.68 199.13-0.64 10.75-12.34 14.72-21.09 17.12-96.98 24.69-191.74 57.17-285.77 91.24-1.79-1.4-2.98-3.36-2.68-5.7 1.82-25.64 0.58-51.39 1.24-77.07 1.78-21.27-0.23-42.68 1.55-63.95 0.66-21.67-0.48-43.39 1.15-65.02 0.07-19.67-0.03-39.35 0.28-59.01 1.75-21.95-0.27-44.02 1.58-65.97 0.45-21.46-0.08-42.96 0.68-64.42 27.51-13.21 56.01-24.48 84.55-35.25-1.37 43.56-1.5 87.52 5.83 130.62 2.11 10.05 3.86 21.18 11.1 28.99 9.02-8.07 15.18-18.8 24.25-26.83 1.96-1.59 4.18-3.26 6.8-3.41 11.04 0.34 21.01 5.98 31.88 7.25-0.5-6.18-2.56-12.08-3.63-18.16-5.21-24.61-5.17-49.86-6.51-74.86-0.18-22.97-1.07-45.92-1.41-68.89 17.28-5.98 34.71-11.59 52.37-16.35z" fill="#02AEFC" p-id="8442"></path><path d="M608.11 491.1c18.46-6.69 37.14-12.83 56.06-18.06 10.76 4.9 21.92 8.92 32.43 14.37 0.23 1.87 0.51 3.75 0.68 5.65 0.34 22.97 1.23 45.92 1.41 68.89 1.34 25 1.3 50.25 6.51 74.86 1.07 6.08 3.13 11.98 3.63 18.16-10.87-1.27-20.84-6.91-31.88-7.25-2.62 0.15-4.84 1.82-6.8 3.41-9.07 8.03-15.23 18.76-24.25 26.83-7.24-7.81-8.99-18.94-11.1-28.99-7.33-43.1-7.2-87.06-5.83-130.62 0.21-2.18 0.42-4.36 0.62-6.54-11.01-4.64-21.99-11-33.92-12.31 2.05-5.18 7.77-6.55 12.44-8.4z" fill="#FC0029" p-id="8443"></path><path d="M470.38 552.88c23.5 9.09 50.32 9.09 74.04 0.72-0.76 21.46-0.23 42.96-0.68 64.42-1.85 21.95 0.17 44.02-1.58 65.97-0.31 19.66-0.21 39.34-0.28 59.01-1.63 21.63-0.49 43.35-1.15 65.02-1.78 21.27 0.23 42.68-1.55 63.95-0.66 25.68 0.58 51.43-1.24 77.07-0.3 2.34 0.89 4.3 2.68 5.7-20.72 11.71-47.33 11.12-67.97-0.63l4.29 0.36c-1.71-36.78 0.06-73.69-1.91-110.47 0.38-33.69-1.6-67.31-1.11-101-1.51-24.97-0.63-50.01-1.07-75.02-1.39-15.95-0.5-31.99-0.9-47.98-1.9-22.33 0.13-44.79-1.57-67.12z" fill="#19B5FF" p-id="8444"></path></svg>