<?xml version="1.0" standalone="no"?><!DOCTYPE svg PUBLIC "-//W3C//DTD SVG 1.1//EN" "http://www.w3.org/Graphics/SVG/1.1/DTD/svg11.dtd"><svg t="1561624861509" class="icon" viewBox="0 0 1024 1024" version="1.1" xmlns="http://www.w3.org/2000/svg" p-id="5331" xmlns:xlink="http://www.w3.org/1999/xlink" width="150" height="150"><defs><style type="text/css"></style></defs><path d="M505.299753 943.849877c-63.841975 0-122.374321-21.364938-160.047407-53.222717-19.215802 5.688889-43.614815 14.917531-59.038025 26.295309-13.274074 9.734321-11.630617 19.721481-9.228642 23.766914 10.49284 17.698765 179.516049 11.251358 228.314074 6.068148V943.849877zM505.299753 943.849877c63.841975 0 122.374321-21.364938 160.047407-53.222717 20.985679 5.688889 40.83358 14.538272 59.038025 26.295309 13.274074 9.734321 11.630617 19.721481 9.228642 23.766914-10.49284 17.698765-179.516049 11.251358-228.314074 6.068148V943.849877z" fill="#F0A718" p-id="5332"></path><path d="M589.748148 235.014321l-2.781234-1.137778c-0.884938-0.379259-2.401975 0.379259-3.286914 0.632099-27.812346 10.36642-54.486914 23.387654-79.644444 38.937284 0 0-46.775309-12.136296-73.702716-41.339259-0.632099-0.758519-1.896296 0-1.896297 0-107.70963 37.167407-152.967901 153.72642-152.967901 269.779753 0 8.343704 0.379259 24.272593 0.379259 25.53679 2.275556 2.149136 5.05679 3.666173 8.090864 4.551111 72.059259 19.089383 146.267654 29.076543 220.728889 29.582222h0.758519c74.081975-0.505679 147.658272-10.36642 219.338271-29.202963 3.539753-0.884938 6.826667-2.528395 9.607902-4.80395 0-1.011358 0.505679-17.193086 0.505679-25.53679 0-113.272099-43.109136-227.049877-145.256297-266.872099" fill="#030000" p-id="5333"></path><path d="M791.893333 678.747654c-6.573827-20.985679-15.42321-45.511111-24.272592-69.025185-2.022716-0.505679-4.045432-0.632099-6.068148-0.252839-81.287901 23.766914-180.148148 38.937284-255.494321 38.052345h-0.758519c-75.346173 0.884938-174.459259-14.285432-255.74716-38.178765-2.022716-0.25284-4.045432-0.12642-6.068149 0.379259-8.975802 23.514074-18.204444 48.039506-24.272592 69.025185-31.225679 100.250864-21.112099 141.590123-13.400494 142.601482 16.560988 2.022716 64.221235-75.472593 64.221235-75.472593 0 78.885926 71.047901 199.49037 233.623703 200.628148h4.298272c162.070123-1.137778 233.118025-121.615802 233.118025-200.501728 0 0 47.660247 77.495309 64.094814 75.472593 7.838025-1.011358 17.951605-42.477037-13.274074-142.727902" fill="#AE2226" p-id="5334"></path><path d="M447.146667 427.678025c-22.123457 1.011358-41.08642-24.272593-42.477037-56.38321s15.802469-58.911605 37.925926-59.922963c22.123457-1.011358 41.08642 24.272593 42.477037 56.25679s-15.676049 59.038025-37.925926 60.049383M605.677037 371.421235c-1.264198 31.984198-20.100741 57.268148-42.477037 56.25679-22.376296-1.011358-39.190123-27.812346-37.799506-59.922963 1.264198-32.110617 20.100741-57.268148 42.477037-56.25679 22.249877 1.011358 39.190123 28.065185 37.799506 59.922963" fill="#FFFFFF" p-id="5335"></path><path d="M644.99358 472.936296c-6.068148-13.147654-65.485432-27.685926-139.567407-27.685926h-0.758519c-73.702716 0-133.499259 14.664691-139.567407 27.685926-0.25284 0.632099-0.379259 1.264198-0.379259 1.896297 0 0.884938 0.25284 1.769877 0.884938 2.528395 4.93037 7.332346 71.174321 43.235556 138.935309 43.235555h0.758518c67.760988 0 134.004938-36.02963 138.935309-43.235555 0.505679-0.758519 0.884938-1.643457 0.884938-2.528395 0-0.632099-0.12642-1.264198-0.379259-1.896297" fill="#F0A718" p-id="5336"></path><path d="M474.453333 371.926914c1.011358 12.641975-6.068148 24.272593-15.549629 25.15753s-18.204444-8.090864-19.215803-20.732839c-1.011358-12.641975 6.068148-23.893333 15.54963-25.157531 9.481481-1.264198 18.204444 7.964444 19.215802 20.73284M535.261235 375.972346a37.432889 37.432889 0 0 1 42.856296-15.170371c4.171852 0.632099 8.090864 2.528395 11.251358 5.43605 1.137778 2.022716 1.264198 4.424691 0.252839 6.447407a6.194568 6.194568 0 0 1-6.826666 5.18321 12.427062 12.427062 0 0 1-2.022716-0.632099c-12.389136-8.090864-28.823704-5.688889-38.431605 5.562469-1.517037 1.517037-3.919012 1.517037-5.43605 0a5.676247 5.676247 0 0 1-1.643456-6.953086" fill="#030000" p-id="5337"></path><path d="M360.801975 633.362963v110.364444c33.374815 6.068148 67.508148 7.079506 101.262223 3.160494v-101.894321c-34.006914-2.022716-67.760988-5.815309-101.262223-11.630617" fill="#D92621" p-id="5338"></path><path d="M734.498765 527.17037a864.091654 864.091654 0 0 1-228.819753 31.984198h-0.758518c-77.368889-0.25284-154.358519-10.998519-228.819753-31.984198l-32.995556 82.552099c82.425679 24.778272 184.57284 40.83358 261.815309 39.948642h0.758518c77.242469 0.884938 179.38963-15.043951 261.815309-39.948642L734.498765 527.17037zM462.064198 85.333333c2.401975-0.379259 4.803951 0.632099 6.068148 2.781235l0.505679 0.632099c9.607901 10.998519 13.526914 29.076543 14.285432 43.614814 0.379259 7.585185-0.632099 12.515556 4.93037 1.643457a95.282568 95.282568 0 0 1 48.165926-44.120494c17.572346-7.585185 29.455802-24.272593 30.84642-43.361975 0-1.390617 0-5.436049 3.539753-6.447407 3.539753-1.011358 5.815309 2.149136 6.826667 3.539753 16.813827 19.721481 47.154568 67.381728 15.802469 126.419753-3.919012 7.458765 1.011358 4.677531 4.045432 3.539753 18.962963-6.826667 32.995556-26.042469 33.374815-26.548148a5.05679 5.05679 0 0 1 6.068148-1.264198c1.769877 1.011358 2.149136 1.517037 2.907654 4.551111 6.320988 24.272593-0.758519 63.083457-50.315062 84.069136-24.778272 10.49284-61.31358 25.157531-85.459753 41.592099 0 0-100.882963-26.042469-100.882963-91.780741a84.284049 84.284049 0 0 1 37.420247-72.185679c8.470123-5.05679 14.917531-12.894815 18.204445-22.249876 1.264198-4.171852 3.160494-4.424691 3.792592-4.551111" fill="#D92621" p-id="5339"></path></svg>