<?xml version="1.0" standalone="no"?><!DOCTYPE svg PUBLIC "-//W3C//DTD SVG 1.1//EN" "http://www.w3.org/Graphics/SVG/1.1/DTD/svg11.dtd"><svg t="1561624923497" class="icon" viewBox="0 0 1026 1024" version="1.1" xmlns="http://www.w3.org/2000/svg" p-id="5464" xmlns:xlink="http://www.w3.org/1999/xlink" width="150.29296875" height="150"><defs><style type="text/css"></style></defs><path d="M311.541147 5.107232H89.376559C40.857855 5.107232 0 45.965087 0 94.483791v753.316708c0 48.518703 38.304239 89.376559 89.376559 89.376558H178.753117c25.53616-2.553616 45.965087-20.428928 45.965087-45.965087 0-20.428928-20.428928-43.411471-45.965087-43.411471H135.341646c-25.53616 0-43.411471-20.428928-43.411471-43.411472v-663.940149c0-25.53616 20.428928-43.411471 43.411471-43.411472h132.78803c25.53616 0 43.411471 20.428928 43.411471 43.411472v707.351621c0 43.411471-33.197007 81.715711-76.608479 89.376558h76.608479c48.518703 0 89.376559-38.304239 89.376559-89.376558V97.037406c-2.553616-51.072319-40.857855-91.930175-89.376559-91.930174z m311.541147 86.822943h311.541147c48.518703 0 89.376559-38.304239 89.376559-89.376559v-2.553616H574.563591C526.044888 2.553616 485.187032 40.857855 485.187032 91.930175v891.21197c48.518703 0 89.376559-38.304239 89.376559-89.376559V400.917706h283.451372v579.670823c48.518703 0 89.376559-38.304239 89.376558-89.376559V400.917706c38.304239-7.660848 71.501247-43.411471 71.501247-86.822943H579.670823V140.448878c0-30.643392 17.875312-48.518703 43.411471-48.518703z" fill="#FC4514" p-id="5465"></path></svg>