<?xml version="1.0" standalone="no"?><!DOCTYPE svg PUBLIC "-//W3C//DTD SVG 1.1//EN" "http://www.w3.org/Graphics/SVG/1.1/DTD/svg11.dtd"><svg t="1537846276120" class="icon" style="" viewBox="0 0 1024 1024" version="1.1" xmlns="http://www.w3.org/2000/svg" p-id="2645" xmlns:xlink="http://www.w3.org/1999/xlink" width="48" height="48"><defs><style type="text/css"></style></defs><path d="M480.587093 50.52416C128.590507 75.4688-67.269973 469.9648 125.81888 764.678827c194.93888 297.485653 640.249173 271.619413 800.078507-48.039253C1084.801707 399.74912 834.433707 25.57952 480.587093 50.52416zM551.727787 111.499947c337.21344 34.184533 483.188053 443.460267 244.82816 684.591787-193.088853 194.935467-524.75904 139.506347-645.789013-108.09344C12.182187 406.217387 239.455573 79.16544 551.727787 111.499947zM244.998827 486.59456l182.00576 0 0 60.975787L244.998827 547.570347l0.925013 224.50176 250.371413 0.9216 0-65.594027L317.986133 707.39968l0.925013-85.920427 177.384107 0 0-200.482133L317.986133 420.99712l0-69.290667 178.30912 0L496.295253 277.797547 244.998827 277.797547 244.998827 486.59456zM527.70816 351.706453l178.305707 0 0 69.290667-178.305707 0 0 200.482133 178.305707 0 0 84.992-178.305707 0.925013 0 65.594027 251.293013-0.9216 0-224.50176L596.992 547.566933l0-60.975787 182.00576 0L778.99776 277.797547l-251.293013 0L527.704747 351.706453z" p-id="2646" fill="#d92929"></path></svg>