<?xml version="1.0" standalone="no"?><!DOCTYPE svg PUBLIC "-//W3C//DTD SVG 1.1//EN" "http://www.w3.org/Graphics/SVG/1.1/DTD/svg11.dtd"><svg t="1537847838412" class="icon" style="" viewBox="0 0 1024 1024" version="1.1" xmlns="http://www.w3.org/2000/svg" p-id="8010" xmlns:xlink="http://www.w3.org/1999/xlink" width="48" height="48"><defs><style type="text/css"></style></defs><path d="M513.289673 438.488665c-15.476071-25.793451-25.793451-56.745592-38.690177-82.539043-20.634761-54.166247-41.269521-105.753149-59.324937-159.919395-59.324937 172.816121-154.760705 332.735516-268.251889 466.861461 85.118388-20.634761 172.816121-33.531486 257.934509-38.690177 41.269521-59.324937 74.801008-121.229219 108.332494-185.712846" fill="#BF0017" p-id="8011"></path><path d="M513.289673 621.622166c-36.110831 0-72.221662 0-105.753149 2.579345-46.428212 72.221662-103.173804 139.284635-162.498741 203.768262 87.697733-18.055416 177.974811-23.214106 268.25189-23.214105s183.133501 7.738035 268.251889 23.214105c-59.324937-64.483627-116.070529-134.125945-162.498741-203.768262-33.531486-2.579345-69.642317-2.579345-105.753148-2.579345" fill="#730000" p-id="8012"></path><path d="M147.02267 662.891688l95.435768 165.078085c59.324937-64.483627 116.070529-134.125945 162.498741-203.768262-87.697733 5.15869-172.816121 18.055416-257.934509 38.690177" fill="#E60020" p-id="8013"></path><path d="M404.957179 624.201511c41.269521-59.324937 77.380353-121.229219 105.753148-185.712846 33.531486 64.483627 67.062972 126.387909 105.753149 185.712846-36.110831-2.579345-72.221662-2.579345-105.753149-2.579345-33.531486 0-69.642317 0-105.753148 2.579345" fill="#FFFFFF" p-id="8014"></path><path d="M608.725441 196.030227c-18.055416 54.166247-36.110831 105.753149-59.324937 159.919395-12.896725 28.372796-23.214106 56.745592-38.690177 82.539043 33.531486 64.483627 67.062972 126.387909 105.753149 185.712846 87.697733 5.15869 175.395466 18.055416 257.934509 38.690177-113.491184-136.70529-203.768262-296.624685-265.672544-466.861461" fill="#E60020" p-id="8015"></path><path d="M513.289673 438.488665c15.476071-25.793451 25.793451-56.745592 38.690176-82.539043 20.634761-54.166247 41.269521-105.753149 59.324937-159.919395h-193.450882c18.055416 54.166247 36.110831 105.753149 59.324937 159.919395 10.31738 25.793451 20.634761 54.166247 36.110832 82.539043" fill="#730000" p-id="8016"></path><path d="M781.541562 827.969773l95.435768-165.078085c-82.539043-20.634761-167.657431-33.531486-257.934509-38.690177 51.586902 69.642317 103.173804 139.284635 162.498741 203.768262" fill="#BF0017" p-id="8017"></path></svg>