<?xml version="1.0" standalone="no"?><!DOCTYPE svg PUBLIC "-//W3C//DTD SVG 1.1//EN" "http://www.w3.org/Graphics/SVG/1.1/DTD/svg11.dtd"><svg t="1537846261509" class="icon" style="" viewBox="0 0 1024 1024" version="1.1" xmlns="http://www.w3.org/2000/svg" p-id="2393" xmlns:xlink="http://www.w3.org/1999/xlink" width="48" height="48"><defs><style type="text/css"></style></defs><path d="M612.821333 237.866667c-48.725333-55.466667-94.378667-55.808-94.378666-55.808s109.44-47.36 208 51.2l104.533333 104.533333s7.125333 6.101333 6.4 9.728c-1.536 7.125333-5.632 14.421333-5.632 14.421333l-47.872 45.866667-171.093333-169.941333z m205.482667 295.253333s8.917333-2.005333 13.226667 1.066667c4.138667 2.986667 3.584 4.522667 3.541333 6.613333-8.106667 173.994667-151.978667 312.533333-324.266667 312.533333-174.805333 0-324.224-144.341333-324.224-324.565333 0-160.213333 113.578667-294.570667 270.336-320.384 17.578667-2.858667 62.976-6.613333 104.32 34.688l195.157334 194.176-66.986667 68.010667s-9.472 8.448-16.042667 6.741333c-7.082667-1.877333-13.013333-8.789333-13.013333-8.789333l-144.981333-145.066667a6.570667 6.570667 0 0 0-9.216 0L341.333333 522.581333a6.570667 6.570667 0 0 0 0 9.258667l164.565334 164.138667c2.56 2.56 6.656 2.56 9.216 0l154.965333-154.24s7.125333-5.973333 9.642667-7.082667c3.84-1.749333 12.885333-1.536 12.885333-1.536h125.653333z" fill="#0E3484" p-id="2394"></path></svg>