<?xml version="1.0" standalone="no"?><!DOCTYPE svg PUBLIC "-//W3C//DTD SVG 1.1//EN" "http://www.w3.org/Graphics/SVG/1.1/DTD/svg11.dtd"><svg t="1537847862488" class="icon" style="" viewBox="0 0 1024 1024" version="1.1" xmlns="http://www.w3.org/2000/svg" p-id="8799" xmlns:xlink="http://www.w3.org/1999/xlink" width="48" height="48"><defs><style type="text/css"></style></defs><path d="M431.396729 396.897495c-71.628364-141.349285-252.872265-119.7872-292.659433 0.530073 0 0-5.510504 38.993083-9.907651 79.681784l0 246.372224 116.395964 109.295242 0.053212-300.870442C245.278821 531.905352 257.834788 388.102179 431.396729 396.897495L431.396729 396.897495zM260.590552 626.316605c0 0 191.150528 26.38288 197.666942-169.021531-2.966565-183.52178 232.527914-195.70731 296.580742-63.787792 0 0-166.939103 2.278903-184.528714 140.569526 0 0 2.171456 170.7018-129.588427 188.290387C440.721095 722.366172 297.940205 747.109716 260.590552 626.316605L260.590552 626.316605zM591.077521 624.089891c71.575152 141.296073 249.53424 118.091582 289.321408-2.223644 0 0 12.08013-27.550473 13.192464-77.933977L893.591393 297.507858 777.195429 188.210569l0 300.872488C777.195429 489.083058 764.533039 632.886231 591.077521 624.089891L591.077521 624.089891z" p-id="8800" fill="#13227a"></path></svg>