<?xml version="1.0" standalone="no"?><!DOCTYPE svg PUBLIC "-//W3C//DTD SVG 1.1//EN" "http://www.w3.org/Graphics/SVG/1.1/DTD/svg11.dtd"><svg t="1537847872227" class="icon" style="" viewBox="0 0 1024 1024" version="1.1" xmlns="http://www.w3.org/2000/svg" p-id="9067" xmlns:xlink="http://www.w3.org/1999/xlink" width="48" height="48"><defs><style type="text/css"></style></defs><path d="M436.8768 76.2848C132.5632 130.9056-27.3984 470.3328 128.6592 735.632c163.8624 280.9056 569.616 296.512 752.9856 23.408C1096.2272 435.2192 815.3184 6.0576 436.8768 76.2848zM460.2848 244.048c0 105.3376 3.904 93.6352-50.7168 97.536-89.7344 7.8016-105.3408 31.2128-109.2416 144.3552-3.9008 175.568 7.8016 202.8768 105.3376 210.6784 62.4256 7.8016 58.5248 3.9008 58.5248 97.5328 0 89.7344 0 89.7344-62.4256 66.3296C120.8576 770.7424 58.4352 400.1056 292.5216 220.6368c42.9184-35.1104 124.848-70.224 156.0608-70.224l11.7024 0L460.2848 244.048zM612.4448 158.2144c261.4016 74.128 351.1328 409.6544 163.8624 608.6304-54.624 54.6208-156.0608 109.2448-198.976 105.344l-7.8048-3.9072-3.9008-74.128c0-93.6352-3.9008-85.8272 42.9152-89.7312 97.5392-7.8016 109.2416-31.2128 113.1392-171.6672 0-156.0608-15.6-183.3696-113.1392-191.1712l-39.0144-3.9008-3.9008-11.7056c-3.9008-15.6064-3.9008-167.7632 0-171.664C569.5264 150.4128 581.232 150.4128 612.4448 158.2144zM624.1472 427.4176c11.7056 7.8016 11.7056 156.0576 0 167.7632-11.7024 11.6992-218.4832 11.6992-226.2848 0-3.9008-7.8048-3.9008-159.9616 0-167.7632C405.664 423.5136 616.3424 423.5136 624.1472 427.4176z" p-id="9068" fill="#d81e06"></path></svg>