<?xml version="1.0" standalone="no"?><!DOCTYPE svg PUBLIC "-//W3C//DTD SVG 1.1//EN" "http://www.w3.org/Graphics/SVG/1.1/DTD/svg11.dtd"><svg t="1561624928344" class="icon" viewBox="0 0 1024 1024" version="1.1" xmlns="http://www.w3.org/2000/svg" p-id="5743" xmlns:xlink="http://www.w3.org/1999/xlink" width="150" height="150"><defs><style type="text/css"></style></defs><path d="M933 457.2l-84.6-84.6V253c0-42.8-34.7-77.5-77.5-77.5H651.4L566.8 91c-30.3-30.3-79.3-30.3-109.6 0l-84.5 84.5H253.1c-42.8 0-77.5 34.7-77.5 77.5v119.6L91 457.2c-30.3 30.3-30.3 79.3 0 109.6l84.6 84.5v119.6c0 42.8 34.7 77.5 77.5 77.5h119.6l84.6 84.6c30.3 30.2 79.3 30.2 109.6 0l84.6-84.6h119.6c42.8 0 77.5-34.7 77.5-77.5V651.3l84.6-84.6c30-30.2 30-79.2-0.2-109.5z m-282.9-36.1c18.1 0 32.9 14.7 32.9 32.8 0 18.1-14.7 32.9-32.9 32.9-18.1 0-32.8-14.8-32.8-32.9 0-18.1 14.7-32.8 32.8-32.8z m-277 0c18.1 0 32.9 14.7 32.9 32.8 0 18.1-14.7 32.9-32.9 32.9-18.1 0-32.9-14.8-32.9-32.9 0.1-18.1 14.8-32.8 32.9-32.8z m267.7 356.7H383.6c-56.3 0-101.9-45.6-101.9-101.8 0-55.2 43.9-100.1 98.6-101.8 7.8-65.6 63.6-116.4 131.2-116.4 67.7 0 123.5 50.8 131.3 116.4 55.2 1.2 99.7 46.3 99.7 101.8 0.1 56.3-45.5 101.8-101.7 101.8z" fill="#f29d00" p-id="5744"></path><path d="M591.7 574.1H431.6c-15 0-28.1 20.1-6.5 36.2l52.9 39.6s14.5 10.6 33.6 10.4c19.1 0.1 33.7-10.4 33.7-10.4l53-39.6c21.5-16 8.4-36.2-6.6-36.2z" fill="#141414" p-id="5745"></path></svg>