<?xml version="1.0" standalone="no"?><!DOCTYPE svg PUBLIC "-//W3C//DTD SVG 1.1//EN" "http://www.w3.org/Graphics/SVG/1.1/DTD/svg11.dtd"><svg t="1562902295543" class="icon" viewBox="0 0 1024 1024" version="1.1" xmlns="http://www.w3.org/2000/svg" p-id="5494" xmlns:xlink="http://www.w3.org/1999/xlink" width="200" height="200"><defs><style type="text/css"></style></defs><path d="M543.41 1006.896l-241.63-375.62c-21.271-30.89-45.456-67.076-63.449-105.771-20.398-43.872-30.314-85.203-30.314-126.361 0-89.449 34.833-173.544 98.083-236.794s147.346-98.083 236.796-98.083c89.449 0 173.544 34.833 236.795 98.083 63.25 63.25 98.083 147.346 98.083 236.794 0 89.815-44.03 157.364-90.646 228.877L543.41 1006.896z m-0.514-922.915c-173.781 0-315.165 141.381-315.165 315.163 0 82.981 42.75 151.924 90.373 221.077l0.173 0.259L543.41 970.454l227.169-353.149c45.002-69.04 87.479-134.203 87.479-218.161 0-173.782-141.381-315.163-315.162-315.163z" p-id="5495" fill="#ffffff"></path><path d="M542.896 476.922c-63.513 0-115.185-51.672-115.185-115.183 0-63.514 51.672-115.186 115.185-115.186 63.512 0 115.184 51.672 115.184 115.186 0 63.511-51.672 115.183-115.184 115.183z m0-210.654c-52.642 0-95.471 42.829-95.471 95.472 0 52.64 42.829 95.469 95.471 95.469 52.641 0 95.468-42.829 95.468-95.469 0-52.643-42.827-95.472-95.468-95.472z" p-id="5496" fill="#ffffff"></path></svg>