<?xml version="1.0" standalone="no"?><!DOCTYPE svg PUBLIC "-//W3C//DTD SVG 1.1//EN" "http://www.w3.org/Graphics/SVG/1.1/DTD/svg11.dtd"><svg t="1537879224500" class="icon" style="" viewBox="0 0 1024 1024" version="1.1" xmlns="http://www.w3.org/2000/svg" p-id="3657" xmlns:xlink="http://www.w3.org/1999/xlink" width="48" height="48"><defs><style type="text/css"></style></defs><path d="M512 960C265 960 64 759 64 512S265 64 512 64s448 201 448 448-201 448-448 448z m0-832.9c-212.2 0-384.9 172.7-384.9 384.9S299.8 896.9 512 896.9 896.9 724.2 896.9 512 724.2 127.1 512 127.1z" p-id="3658" fill="#999999"></path><path d="M446.2 692.8c-8.1 0-16.2-3.1-22.3-9.2L255.4 515.1c-12.3-12.3-12.3-32.3 0-44.6 12.3-12.3 32.3-12.3 44.6 0L468.5 639c12.3 12.3 12.3 32.3 0 44.6-6.1 6.2-14.2 9.2-22.3 9.2z" p-id="3659" fill="#999999"></path><path d="M449.9 690.6c-8.1 0-16.2-3.1-22.3-9.2-12.3-12.3-12.3-32.3 0-44.6l296.3-296.3c12.3-12.3 32.3-12.3 44.6 0 12.3 12.3 12.3 32.3 0 44.6L472.2 681.3c-6.1 6.2-14.2 9.3-22.3 9.3z" p-id="3660" fill="#999999"></path></svg>