<svg t="1566375180510" class="icon" viewBox="0 0 1024 1024" version="1.1" xmlns="http://www.w3.org/2000/svg" p-id="10714" width="200" height="200"><path d="M984.660017 316.223105c-25.666566-61.857836-63.506383-118.621655-110.884436-165.999708C826.397526 102.846366 769.629615 65.001433 707.775872 39.339983 645.917012 13.674441 578.954925 0.346901 511.998977 0.346901c-66.960041 0-133.914966 13.328563-195.775872 38.993083-61.85886 25.666566-118.621655 63.506383-165.999708 110.884436C102.842273 197.606567 65.00041 254.370385 39.339983 316.223105c-25.666566 61.85886-38.993083 128.820947-38.993083 195.776895 0 66.960041 13.328563 133.914966 38.993083 195.775872 25.666566 61.85886 63.505359 118.621655 110.884436 165.999708 47.381124 47.382147 104.144942 85.22401 165.999708 110.884436 61.857836 25.666566 128.820947 38.993083 195.775872 38.993083 66.960041 0 133.914966-13.329587 195.776895-38.993083 61.857836-25.666566 118.621655-63.505359 165.999708-110.884436 47.381124-47.381124 85.222987-104.144942 110.884436-165.999708 25.665543-61.857836 38.993083-128.820947 38.993083-195.775872C1023.653099 445.040982 1010.323513 378.085034 984.660017 316.223105L984.660017 316.223105zM758.611677 680.634722c-7.734148 40.47483-49.688679 81.105203-123.389238 92.13235-96.079242 14.310937-370.168738-155.965168-370.168738-383.988488 3.456728-111.053282 43.269479-138.194432 92.623537-138.194432 49.190329 0 105.124246 140.664693 77.163427 153.493883-23.031553 10.692526-62.84328 14.310937-61.691037 61.528332 0.654916 30.930453 156.294672 201.702861 185.082322 199.556988 49.360198-3.290953 38.664601-60.544935 77.163427-76.664054 29.120224-12.338003 130.957611 51.492768 123.229602 92.130304L758.611677 680.634722 758.611677 680.634722z" p-id="10715" fill="#f6705f"></path></svg>
