<?xml version="1.0" standalone="no"?><!DOCTYPE svg PUBLIC "-//W3C//DTD SVG 1.1//EN" "http://www.w3.org/Graphics/SVG/1.1/DTD/svg11.dtd"><svg class="icon" width="32px" height="32.00px" viewBox="0 0 1024 1024" version="1.1" xmlns="http://www.w3.org/2000/svg"><path d="M981.333333 426.666667h42.666667v-183.466667c0-59.733333-46.933333-106.666667-106.666667-106.666667H106.666667c-59.733333 0-106.666667 46.933333-106.666667 106.666667V426.666667h42.666667c51.2 0 91.733333 42.666667 91.733333 93.866666 0 51.2-40.533333 91.733333-91.733333 93.866667H0v183.466667c0 59.733333 46.933333 106.666667 106.666667 106.666666h810.666666c59.733333 0 106.666667-46.933333 106.666667-106.666666v-183.466667h-42.666667c-51.2 0-93.866667-42.666667-93.866666-93.866667 0-53.333333 42.666667-93.866667 93.866666-93.866666zM418.133333 855.466667h-85.333333v-121.6h85.333333v121.6z m0-183.466667h-85.333333v-121.6h85.333333v121.6z m0-183.466667h-85.333333v-121.6h85.333333v121.6z m0-183.466666h-85.333333V183.466667h85.333333v121.6z" fill="#f6705f" /></svg>